<svg id="Twotone" height="512" viewBox="0 0 64 64" width="512" xmlns="http://www.w3.org/2000/svg"><g id="Stroke_copy_3" data-name="Stroke copy 3"><g fill="#cff09e"><path d="m41 19a5.94 5.94 0 0 1 -4.13-1.66 8 8 0 0 1 -9.74 0 6 6 0 0 1 -6.44 1.2l1.31 10.46h20l1.31-10.46a5.92 5.92 0 0 1 -2.31.46z"/><path d="m42 17a5.94 5.94 0 0 1 -4.13-1.66 8 8 0 0 1 -9.74 0 5.94 5.94 0 0 1 -4.13 1.66 6 6 0 0 1 -6-6 5.84 5.84 0 0 1 .23-1.63 6 6 0 0 0 8.9 8 8 8 0 0 0 9.74 0 6 6 0 0 0 9.9-2.71 6 6 0 0 1 -4.77 2.34z"/><path d="m22 29v4h20v-2h-18a2 2 0 0 1 -2-2z"/></g><path d="m39.09 60.16a2.84 2.84 0 0 1 -4.13-.1l-11.42-12.62 2.82-2.83 12.64 11.39a2.84 2.84 0 0 1 .09 4.16z" fill="#a8dba8"/><rect fill="#a8dba8" height="14" rx="5" transform="matrix(.707 -.707 .707 .707 -23.77 27.59)" width="10" x="16.41" y="35.49"/><path d="m24.84 60.16a2.84 2.84 0 0 1 .1-4.13l12.62-11.42 2.83 2.83-11.39 12.62a2.84 2.84 0 0 1 -4.16.1z" fill="#cff09e"/><path d="m35.39 40.61h10a0 0 0 0 1 0 0v3a5 5 0 0 1 -5 5 5 5 0 0 1 -5-5v-3a0 0 0 0 1 0 0z" fill="#cff09e" transform="matrix(.707 .707 -.707 .707 43.37 -15.5)"/></g><g id="Stroke_Close" fill="#3b8686" data-name="Stroke Close"><path d="m19.77 19.2 1.23 9.86v3.94a1 1 0 0 0 1 1h20a1 1 0 0 0 1-1v-3.94l1.23-9.86a7 7 0 0 0 -3.23-13.2 6.78 6.78 0 0 0 -1.42.15 9 9 0 0 0 -15.16 0 6.78 6.78 0 0 0 -1.42-.15 7 7 0 0 0 -3.23 13.2zm21.23 12.8h-18v-2h18zm.12-4h-4l.88-5.86a1 1 0 0 0 -.86-1.14 1 1 0 0 0 -1.13.85l-.88 6.15h-6.26l-.87-6.14a1 1 0 0 0 -2 .28l.85 5.86h-4l-1-8.1a6.86 6.86 0 0 0 5.32-1.3 9 9 0 0 0 9.62 0 6.86 6.86 0 0 0 5.32 1.3zm-18.12-20a5.14 5.14 0 0 1 1.59.26 1 1 0 0 0 1.2-.48 7 7 0 0 1 12.42 0 1 1 0 0 0 1.2.48 5.14 5.14 0 0 1 1.59-.26 5 5 0 0 1 0 10 4.92 4.92 0 0 1 -2.57-.73 1 1 0 0 0 -.07-1.27 1 1 0 0 0 -1.36 0 7 7 0 0 1 -9.9 0 1 1 0 0 0 -1.41 0 1 1 0 0 0 -.07 1.32 4.92 4.92 0 0 1 -2.62.68 5 5 0 0 1 0-10z"/><path d="m51.71 40.37a1 1 0 0 0 -1.42 0l-3.53 3.53-2.12-2.12 3.53-3.54a1 1 0 1 0 -1.41-1.41l-3.54 3.54-2.12-2.13 3.54-3.53a1 1 0 0 0 -1.42-1.42l-4.22 4.25-2.12 2.12a6 6 0 0 0 -1.58 5.66l-3.32 3-3.31-3a6 6 0 0 0 -1.58-5.66l-2.83-2.83a6 6 0 1 0 -8.48 8.48l2.83 2.83a6 6 0 0 0 5.66 1.58l2.73 3.07-2.76 2.5a3.85 3.85 0 0 0 2.61 6.71h.15a3.82 3.82 0 0 0 2.76-1.27l2.24-2.49 2.26 2.49a3.82 3.82 0 0 0 2.74 1.27h.1a3.85 3.85 0 0 0 2.58-6.71l-2.76-2.5 2.78-3.07a6 6 0 0 0 5.66-1.58l6.37-6.36a1 1 0 0 0 -.02-1.41zm-26.4 7.54a1 1 0 0 0 -1.09-.27 4 4 0 0 1 -4.22-.91l-2.83-2.83a4 4 0 0 1 0-5.66 4.1 4.1 0 0 1 5.66 0l2.83 2.83a4 4 0 0 1 .91 4.22 1 1 0 0 0 .26 1.09l3.64 3.29-2 1.78zm13 8.86a1.89 1.89 0 0 1 .61 1.33 1.85 1.85 0 0 1 -.55 1.36 1.88 1.88 0 0 1 -1.37.54 1.81 1.81 0 0 1 -1.33-.61l-2.39-2.64 2.25-2.48zm5.61-10a4 4 0 0 1 -4.22.91 1 1 0 0 0 -1.09.27l-3.88 4.28-6.51 7.2a1.85 1.85 0 0 1 -1.32.57 1.94 1.94 0 0 1 -1.36-.54 1.88 1.88 0 0 1 -.54-1.36 1.85 1.85 0 0 1 .61-1.33l11.49-10.39a1 1 0 0 0 .26-1.09 4 4 0 0 1 .91-4.22l1.42-1.41 2.82 2.82 2.82 2.82z"/></g></svg>